<?xml version="1.0" standalone="no"?><!DOCTYPE svg PUBLIC "-//W3C//DTD SVG 1.1//EN" "http://www.w3.org/Graphics/SVG/1.1/DTD/svg11.dtd"><svg class="icon" height="512" viewBox="0 0 1024 1024" version="1.1" xmlns="http://www.w3.org/2000/svg"><path d="M915.114667 1024H108.885333V0h587.776v218.112H914.773333V1024z m-785.066667-20.821333h763.904V238.933333H675.84V20.821333H129.706667v982.357334z" fill="#84BB00" /><path d="M708.266667 10.581333L904.533333 206.848h-196.266666zM520.192 632.149333l163.498667-160.085333c20.48-20.48 20.48-51.2 0-71.68l-183.978667 177.152-143.018667-143.018667 146.432-143.018666 54.613334 54.613333-84.992 81.578667 37.546666 37.546666 102.058667-98.645333c10.24-10.24 10.24-27.306667 0-37.546667l-91.818667-88.405333c-10.24-10.24-27.306667-10.24-37.546666 0l-183.978667 177.152c-10.24 10.24-10.24 27.306667 0 37.546667l183.978667 177.152c9.898667 9.898667 26.965333 9.898667 37.205333-0.341334M676.181333 851.626667c-8.874667 0-15.701333 3.413333-21.162666 10.581333-5.461333 6.826667-8.192 16.042667-8.192 27.306667v1.706666c0 10.922667 2.389333 19.456 7.168 26.282667 5.12 7.509333 12.970667 11.264 22.528 11.264 10.581333 0 18.090667-3.754667 23.552-11.264 4.437333-6.826667 6.826667-15.701333 6.826666-27.306667s-2.389333-20.48-7.168-26.965333c-5.461333-7.850667-13.312-11.605333-23.552-11.605333zM463.530667 851.626667c-9.557333 0-17.408 3.754667-22.528 11.264-4.778667 6.826667-7.168 15.701333-7.168 26.282666v1.706667c0 11.264 2.730667 20.138667 8.192 26.965333 5.12 6.826667 11.946667 10.24 21.162666 10.24 10.581333 0 18.090667-3.754667 23.552-10.922666 4.778667-6.826667 7.168-15.701333 7.168-27.306667 0-11.264-2.389333-20.48-6.826666-27.306667-5.461333-7.168-13.312-10.922667-23.552-10.922666z" fill="#84BB00" /><path d="M116.736 756.394667v261.802666h785.066667v-261.802666h-785.066667z m283.306667 181.930666H302.762667V805.546667h94.208v13.312H317.781333v44.373333h74.410667v13.312H317.781333V925.013333h81.92v13.312z m98.304-12.629333c-7.850667 9.898667-18.432 15.36-32.085334 15.36s-24.234667-6.826667-31.744-20.138667v54.272h-15.018666v-133.12h13.994666v15.701334c6.826667-12.288 17.408-18.432 32.085334-18.432 13.653333 0 24.917333 5.12 32.768 15.36 7.168 9.216 10.922667 21.162667 10.922666 35.498666-0.341333 14.336-4.096 25.941333-10.922666 35.498667z m111.274666 12.629333h-15.018666v-15.018666c-7.850667 11.605333-18.090667 17.408-31.402667 17.408-23.552 0-34.816-13.312-34.816-39.253334v-59.392h15.018667v58.709334c0 9.216 1.706667 16.042667 5.802666 20.48 3.754667 4.437333 10.24 6.826667 19.114667 6.826666 6.485333 0 11.946667-2.730667 17.066667-7.509333 5.12-5.12 8.533333-11.946667 9.557333-20.138667v-58.709333h15.018667v96.597333z m101.717334-12.629333c-7.850667 9.898667-19.114667 15.36-32.768 15.36-15.018667 0-25.6-6.144-32.085334-18.432v15.701333h-13.994666v-135.509333h15.018666v57.002667c7.509333-13.653333 18.090667-20.138667 31.744-20.138667 13.653333 0 24.234667 5.12 32.085334 15.36 7.168 9.216 10.922667 20.821333 10.922666 34.816 0 14.336-3.754667 26.282667-10.922666 35.84z" fill="#84BB00" /></svg>