<svg id="Слой_1" data-name="Слой 1" xmlns="http://www.w3.org/2000/svg" viewBox="0 0 253 51.19"><defs><style>.cls-1{fill:#3a4294;}.cls-2{fill:#252656;}</style></defs><title>кит син</title><path class="cls-1" d="M47,10.29v50l10,0v-20l5.89-.05L75,60.29H89L72,34.43q8.55-12.08,17.12-24.14H76l-13,20-6,0q0-10,0-20Z" transform="translate(-47.03 -10.14)"/><path class="cls-1" d="M95.51,10.29h12l0,30.39a11.31,11.31,0,0,0,2.77,7.07c.41.46,3.43,3.8,7.25,3.7C124,51.3,129.59,42,129.59,42c0,2.4,0,4.79,0,7.19s0,4.62,0,6.93a19.84,19.84,0,0,1-4.9,3.3,21.32,21.32,0,0,1-10.22,1.85c-3.41-.08-8-.2-12.13-3.36a17.76,17.76,0,0,1-4.89-6.05A19.17,19.17,0,0,1,95.51,46Z" transform="translate(-47.03 -10.14)"/><path class="cls-2" d="M129.59,10.85v50l12,0v-50Z" transform="translate(-47.03 -10.14)"/><path class="cls-2" d="M148.44,16l4.24,9a37.71,37.71,0,0,1,13.87-5.25l0,41.11h12v-41a40.21,40.21,0,0,1,13.87,5l4.12-9a38.39,38.39,0,0,0-10.3-4.12c-3.39-.81-6.42-.87-12.34-1-8.36-.14-12.63-.18-17.25,1.27A33.16,33.16,0,0,0,148.44,16Z" transform="translate(-47.03 -10.14)"/><path class="cls-1" d="M201.09,60.34l-.06-31c.13-2,.8-8.88,6.24-13.9,5-4.66,11.11-4.91,16-5.12,5.09-.21,12.38-.52,18.22,4.69,5.19,4.64,6.23,11,6.5,13.31v32H236V28.39h0a19.1,19.1,0,0,0-3.09-6.23c-2.74-3.11-7.36-3.1-8.09-3.1-3.24,0-7.13,1.34-9.21,4.26a21.7,21.7,0,0,0-2.6,6.36h0l0,30.61Z" transform="translate(-47.03 -10.14)"/><ellipse class="cls-1" cx="177.67" cy="36.73" rx="9.41" ry="4.88"/><path class="cls-1" d="M255,60.3l.07-43a10.22,10.22,0,0,1,2.32-4.22,8.56,8.56,0,0,1,3.78-2.58,10,10,0,0,1,3.56-.25c2.38.06,4.76,0,7.14,0,2.11,0,3.58,0,6.54,0l11.78-.09c2.75-.08,3.49-.15,4.65.28,2.76,1,4.33,3.56,5.17,5.35V60.27H289.12L289,20.33l-21.94,0,0,39.94Z" transform="translate(-47.03 -10.14)"/></svg>