<?xml version="1.0" encoding="utf-8"?>
<!-- Generator: Adobe Illustrator 24.0.2, SVG Export Plug-In . SVG Version: 6.00 Build 0)  -->
<svg version="1.1" id="Слой_1" xmlns="http://www.w3.org/2000/svg" xmlns:xlink="http://www.w3.org/1999/xlink" x="0px" y="0px"
	 viewBox="0 0 378 66.8" style="enable-background:new 0 0 378 66.8;" xml:space="preserve">
<style type="text/css">
	.st0{fill:#FCC32C;}
	.st1{fill:#EC6639;}
	.st2{fill:#F9AD15;}
</style>
<title>кит жел</title>
<path class="st0" d="M125.1,6.9v50h10v-20h5.9l12.1,20h14l-17-25.8c5.7-8.1,11.4-16.1,17.1-24.2h-13.1l-13,20h-6c0-6.7,0-13.3,0-20
	H125.1z"/>
<path class="st0" d="M173.5,6.9h12l-0.1,30.4c0.1,2.6,1.1,5.1,2.8,7.1c0.4,0.5,3.4,3.8,7.3,3.7c6.5-0.2,12.1-9.4,12.1-9.4
	c0,2.4,0,4.8,0,7.2s0,4.6,0,6.9c-1.5,1.3-3.1,2.5-4.9,3.3c-3.2,1.5-6.7,2.1-10.3,1.8c-3.4-0.1-8-0.2-12.1-3.4
	c-2.1-1.6-3.7-3.7-4.9-6c-1-1.9-1.6-3.8-1.9-5.9L173.5,6.9L173.5,6.9z"/>
<path class="st1" d="M207.6,7.5v50h12v-50C219.6,7.5,207.6,7.5,207.6,7.5z"/>
<path class="st1" d="M226.5,12.6l4.2,9c2.3-1.4,4.6-2.6,7.1-3.5c2.2-0.8,4.4-1.4,6.7-1.8v41.1h12v-41c4.9,0.8,9.6,2.5,13.9,5l4.1-9
	c-3.2-1.8-6.7-3.2-10.3-4c-3.4-0.8-6.4-0.9-12.3-1c-8.4-0.1-12.6-0.2-17.3,1.3C231.8,9.6,229,11,226.5,12.6z"/>
<path class="st0" d="M279.1,56.9l-0.1-31c0.1-2,0.8-8.9,6.2-13.9c5-4.7,11.1-4.9,16-5.1c5.1-0.2,12.4-0.5,18.2,4.7
	c5.2,4.6,6.2,11,6.5,13.3v32h-12V25l0,0c-0.6-2.2-1.7-4.4-3.1-6.2c-2.7-3.1-7.4-3.1-8.1-3.1c-3.2,0-7.1,1.3-9.2,4.3
	c-1.2,2-2.1,4.1-2.6,6.4l0,0V57L279.1,56.9z"/>
<ellipse class="st0" cx="302.7" cy="43.5" rx="9.4" ry="4.9"/>
<path class="st0" d="M333,56.9l0.1-43c0.4-1.6,1.2-3,2.3-4.2c1-1.2,2.3-2.1,3.8-2.6c1.2-0.3,2.4-0.3,3.6-0.2c2.4,0.1,4.8,0,7.1,0
	c2.1,0,3.6,0,6.5,0l11.8-0.1c2.8-0.1,3.5-0.2,4.6,0.3c2.8,1,4.3,3.6,5.2,5.3v44.5h-11l-0.1-40H345v39.9L333,56.9z"/>
<path class="st2" d="M53.5,6.2l0.4,44.9c4.5-2.1,9.3-3.5,14.2-4.1c5.1-0.5,10.2-0.6,15.3-0.4L83,0.6C78.2,0.2,74.1,0,70.9,0
	C61.1-0.2,58,0.6,55.8,2.7C54.8,3.7,54,4.9,53.5,6.2z"/>
<path class="st2" d="M46.1,6.2l-0.4,44.9c-4.5-2.1-9.3-3.5-14.3-4.1c-5.1-0.5-10.2-0.6-15.3-0.4l0.4-46C21.3,0.2,25.4,0,28.6,0
	c9.8-0.2,12.9,0.6,15.1,2.7C44.8,3.7,45.6,4.9,46.1,6.2z"/>
<path class="st2" d="M99.6,43.1c-0.2-4.8,0-9.5-0.1-14.3c-0.1-3.3-0.1-8.3-0.1-14.4c-0.2-2.5-1.5-4.9-3.6-6.4
	c-1.4-1-3.1-1.5-4.9-1.4l-0.3,42.8c-6.7,0.2-13.4,0.7-20,1.6c-3.8,0.6-7.5,1.8-11,3.6c-3.6,1.8-4.5,3.1-4.9,4
	c-0.7,1.6-0.4,2.9-1.5,3.7c-0.5,0.3-0.8,0.2-3.8,0.2c-2.6,0-2.9,0.1-3.3-0.2c-1.1-0.7-0.8-2.1-1.5-3.7c-0.4-0.9-1.3-2.2-4.9-4
	c-3.5-1.7-7.2-2.9-11-3.6c-6.6-0.9-13.3-1.4-20-1.6L8.5,6.7c-1.7,0-3.4,0.4-4.9,1.4C1.5,9.6,0.2,11.9,0,14.5c0,6.1,0,11-0.1,14.4
	c-0.1,4.8,0.2,9.5-0.1,14.3c-0.1,2.5,0.3,5,0.3,7.5c-0.2,1.6,0.2,3.1,0.9,4.5c0.5,0.7,1.2,1.4,2,1.8c2.3,1.6,4.9,1.5,6.7,1.4
	c0,0,3-0.1,9.7,0.1c3.9,0.1,7.8,0.6,11.6,1.5c4.2,1,6.3,1.5,7.8,2.9c1.5,1.3,2.6,3.4,4.9,3.8c0.8,0.1,1.7,0.1,2.5,0.1
	c1.5,0,2.8,0,3.7-0.1s2.1,0.1,3.7,0.1c0.8,0,1.7,0,2.5-0.1c2.3-0.4,3.3-2.3,4.9-3.8c1.6-1.5,3.6-1.8,7.8-2.9
	c3.8-0.9,7.7-1.4,11.6-1.5c6.6-0.2,9.7-0.1,9.7-0.1c1.8,0,4.4,0.1,6.7-1.4c0.7-0.5,1.4-1.1,1.8-1.8c0.8-1.4,1.1-2.9,0.9-4.5
	C99.3,48.1,99.7,45.6,99.6,43.1z"/>
</svg>
